<?xml version="1.0" standalone="no"?>
<!DOCTYPE svg PUBLIC "-//W3C//DTD SVG 1.1//EN" "http://www.w3.org/Graphics/SVG/1.1/DTD/svg11.dtd">
<svg xmlns="http://www.w3.org/2000/svg" viewBox="0 0 293.35 129.97" width="293.3500061035156" height="129.97000122070312"><defs><style>.cls-1{fill:none;}.cls-2{fill:#3490bf;}.cls-3{fill:#d7c19b;}.cls-4{fill:#e3d5b2;}.cls-5{fill:#010101;}.cls-6{fill:#434345;}.cls-7{fill:#221f1f;}</style></defs><g id="Layer_2" data-name="Layer 2"><g id="Layer_1-2" data-name="Layer 1"><path class="cls-1" d="M85.87,91.55a10.46,10.46,0,0,0-3.3-2.17,10.29,10.29,0,0,0-4-.81H75.78v20h2.76a10.32,10.32,0,0,0,4-.8,10.51,10.51,0,0,0,3.3-2.23,10.2,10.2,0,0,0,2.2-3.22,9.55,9.55,0,0,0,.76-3.77A10,10,0,0,0,88,94.73,10.2,10.2,0,0,0,85.87,91.55Z"/><path class="cls-1" d="M51.28,89.74a9.09,9.09,0,0,0-4.92-1.44,8.94,8.94,0,0,0-4.91,1.44,10.3,10.3,0,0,0-3.59,3.82,10,10,0,0,0,0,10,10.64,10.64,0,0,0,3.57,3.84,9.06,9.06,0,0,0,9.8,0,10.81,10.81,0,0,0,3.6-3.84,10.21,10.21,0,0,0,1.32-5,10.09,10.09,0,0,0-1.32-5A10.64,10.64,0,0,0,51.28,89.74Z"/><path class="cls-2" d="M21.68,107.35a7.93,7.93,0,0,1-9.14,0,10.4,10.4,0,0,1-3.35-3.81,10.69,10.69,0,0,1-1.25-5,10.8,10.8,0,0,1,1.23-5,10.37,10.37,0,0,1,3.34-3.81,8,8,0,0,1,9.19,0,9.31,9.31,0,0,1,2,1.88l5.6-5.79a17.32,17.32,0,0,0-3.67-3,16,16,0,0,0-8.55-2.41,16.08,16.08,0,0,0-8.56,2.41,17.92,17.92,0,0,0-6.25,6.6,19.27,19.27,0,0,0,0,18.26,17.64,17.64,0,0,0,6.25,6.58,16.09,16.09,0,0,0,8.56,2.42,16,16,0,0,0,8.55-2.42,17.94,17.94,0,0,0,3.72-3.08l-5.6-5.8A9.26,9.26,0,0,1,21.68,107.35Z"/><path class="cls-2" d="M55.53,82.8a18.56,18.56,0,0,0-18.33,0,18.36,18.36,0,0,0-6.7,6.6A17.78,17.78,0,0,0,28,98.54a17.58,17.58,0,0,0,2.47,9.12,18.49,18.49,0,0,0,25,6.6,17.83,17.83,0,0,0,6.67-6.6,17.49,17.49,0,0,0,2.47-9.12A17.69,17.69,0,0,0,62.2,89.4,18.12,18.12,0,0,0,55.53,82.8Zm-.68,20.73a10.81,10.81,0,0,1-3.6,3.84,9.06,9.06,0,0,1-9.8,0,10.64,10.64,0,0,1-3.57-3.84,10,10,0,0,1,0-10,10.3,10.3,0,0,1,3.59-3.82,8.94,8.94,0,0,1,4.91-1.44,9.09,9.09,0,0,1,4.92,1.44,10.64,10.64,0,0,1,3.57,3.82,10.09,10.09,0,0,1,1.32,5A10.21,10.21,0,0,1,54.85,103.53Z"/><path class="cls-2" d="M92.3,86.15a18.89,18.89,0,0,0-5.84-3.64,19.2,19.2,0,0,0-7.14-1.32H66.93v34.68H79.32a19,19,0,0,0,7.11-1.32,18.43,18.43,0,0,0,5.87-3.66,17.23,17.23,0,0,0,3.94-5.55,16.46,16.46,0,0,0,1.41-6.8,16.79,16.79,0,0,0-1.41-6.84A17,17,0,0,0,92.3,86.15Zm-4.25,16.16a10.2,10.2,0,0,1-2.2,3.22,10.51,10.51,0,0,1-3.3,2.23,10.32,10.32,0,0,1-4,.8H75.78v-20h2.76a10.29,10.29,0,0,1,4,.81,10.46,10.46,0,0,1,3.3,2.17A10.2,10.2,0,0,1,88,94.73a10,10,0,0,1,.79,3.81A9.55,9.55,0,0,1,88.05,102.31Z"/><polygon class="cls-2" points="99.87 115.91 121.89 115.91 121.89 108.6 108.37 108.6 108.37 101.9 117.22 101.9 115.24 94.6 108.37 94.6 108.37 88.58 121.89 88.58 121.89 81.23 99.87 81.23 99.87 115.91"/><polygon points="152.5 97.2 130.4 80.7 130.4 115.8 138.96 115.8 138.93 98.18 161 115.9 161 81.24 152.5 81.19 152.5 97.2"/><polygon points="165.43 115.87 173.93 115.9 173.93 81.24 165.43 81.24 165.43 115.87"/><polygon points="208.96 115.88 208.96 81.23 200.46 81.18 200.46 97.19 178.36 80.69 178.36 115.79 186.91 115.79 186.89 98.16 208.96 115.88"/><path d="M213.46,114.31h0a14.67,14.67,0,0,1-.32,1.66,9,9,0,0,1-2.64,4,10.46,10.46,0,0,1-4.43,2.35l-.07,0h-.1l-.31.05c-.35.07-.7.13-1.08.17V130a21.14,21.14,0,0,0,3.64-.51,18.7,18.7,0,0,0,8.17-4.28,16.13,16.13,0,0,0,4.79-7.3,13.63,13.63,0,0,0,.56-3.21h0V81.24h-8.24Z"/><path d="M222.91,115.87h8.78l3.39-6.16h13.86l3.4,6.16h8.77L242,80.7Zm15.69-12.56L242,97.15l3.4,6.16Z"/><path d="M280.65,98.27a11.46,11.46,0,0,0-4.5-3.25c-1.71-.65-3.38-1.32-5-2s-2.4-1.61-2.4-2.78a2.35,2.35,0,0,1,1.1-2,3.8,3.8,0,0,1,2.25-.75,6.13,6.13,0,0,1,2.84.63,12.25,12.25,0,0,1,2.66,2l4.18-6a14.34,14.34,0,0,0-4.62-3,14.13,14.13,0,0,0-5.28-1,12,12,0,0,0-5.45,1.27,10.34,10.34,0,0,0-4.18,3.71,10.2,10.2,0,0,0-1.61,5.72q0,4.29,1.86,6.43a11.5,11.5,0,0,0,4.47,3.25l1.29.54,1.28.51,2.49,1.05c1.61.71,2.42,1.65,2.42,2.84a2.52,2.52,0,0,1-1.3,2.3,5.28,5.28,0,0,1-2.76.8,7,7,0,0,1-5.79-2.78l-4.6,6.55a14,14,0,0,0,4.94,3.08,16.66,16.66,0,0,0,5.77,1,12.18,12.18,0,0,0,8.48-3q3.35-3,3.35-8.56Q282.53,100.52,280.65,98.27Z"/><path class="cls-1" d="M141.24,30.33v11h0v-11Z"/><path class="cls-1" d="M170.28,42.69h0Z"/><path class="cls-3" d="M112.17,28.59a27.74,27.74,0,0,0-.77,7.05h0a40.17,40.17,0,0,0,.79,7,281.92,281.92,0,0,1,29.05-1.35v-11A248.12,248.12,0,0,1,112.17,28.59Z"/><path class="cls-4" d="M171.12,35.64h0a39.1,39.1,0,0,0-.78-7,218.34,218.34,0,0,1-29.08,1.69v11c8.63,0,18.59.35,29,1.4h.08A28.24,28.24,0,0,0,171.12,35.64Z"/><path class="cls-5" d="M141.24,0c-16.66,0-30.51,12.61-33.38,29.24-2.83-2.41-7.71-4.55-14.89-1A1.15,1.15,0,0,0,92.56,30c1.5,1.88,5,5.48,10.17,5.55-3.16,1.84-6.57,5.56-5.77,13a1.28,1.28,0,0,0,1.67,1.05c2.53-.81,7.6-3.08,9.08-8.5,2.49,17.1,16.55,30.19,33.53,30.19,18.74,0,33.93-16,33.93-35.64S160,0,141.24,0Zm29,42.69c-10.43-1-20.39-1.4-29-1.4h0a281.92,281.92,0,0,0-29.05,1.35,40.17,40.17,0,0,1-.79-7h0a27.74,27.74,0,0,1,.77-7,248.12,248.12,0,0,0,29.07,1.74h0a218.34,218.34,0,0,0,29.08-1.69,39.1,39.1,0,0,1,.78,7h0a28.24,28.24,0,0,1-.76,7h-.08Z"/><path class="cls-6" d="M114.27,49.68s6.8,15.77,23.76,17.64a29.09,29.09,0,0,0,21.19-6.27S131.56,72,114.27,49.68Z"/><path class="cls-6" d="M167.86,22S161.06,6.27,144.11,4.4a29.09,29.09,0,0,0-21.19,6.27S150.57-.26,167.86,22Z"/><path class="cls-5" d="M131.82,34.88,121,33.58a.61.61,0,0,0-.55,1c4.22,5,9.37,2.73,11.63,1.3a.54.54,0,0,0-.24-1Z"/><path class="cls-5" d="M150.45,35.87c2.25,1.43,7.4,3.75,11.62-1.3a.61.61,0,0,0-.54-1l-10.85,1.3a.54.54,0,0,0-.23,1Z"/><path class="cls-7" d="M293.35,85a4.74,4.74,0,0,1-1.43,3.47,4.85,4.85,0,0,1-6.9,0,4.91,4.91,0,0,1,3.45-8.38A4.88,4.88,0,0,1,293.35,85Zm-7.53-2.68a3.68,3.68,0,0,0-1.1,2.68,3.64,3.64,0,0,0,1.1,2.67,3.58,3.58,0,0,0,2.65,1.11A3.77,3.77,0,0,0,292.23,85a3.68,3.68,0,0,0-1.1-2.68,3.63,3.63,0,0,0-2.66-1.11A3.58,3.58,0,0,0,285.82,82.33Zm.95,5.22v-5h1.41a3.38,3.38,0,0,1,1.06.16,1.35,1.35,0,0,1,.7.5,1.52,1.52,0,0,1,.25.9,1.44,1.44,0,0,1-.22.78,1.17,1.17,0,0,1-.59.51l1.26,2.2h-1.45L288,85.3h0v2.25ZM288,85a1.35,1.35,0,0,0,.52-.08.57.57,0,0,0,.32-.23.78.78,0,0,0,.11-.43.57.57,0,0,0-.23-.53,1.56,1.56,0,0,0-.72-.14Z"/></g></g></svg>