<?xml version="1.0" standalone="no"?>
<!DOCTYPE svg PUBLIC "-//W3C//DTD SVG 1.1//EN" "http://www.w3.org/Graphics/SVG/1.1/DTD/svg11.dtd">
<svg xmlns="http://www.w3.org/2000/svg" viewBox="0 0 385.42 71.28" width="385.4200134277344" height="71.27999877929688"><defs><style>.cls-1{fill:#fff;}</style></defs><g id="Layer_2" data-name="Layer 2"><g id="Layer_1-2" data-name="Layer 1"><path class="cls-1" d="M115.15,42.65l5.6,5.79A17.94,17.94,0,0,1,117,51.52a16.33,16.33,0,0,1-17.11,0,17.64,17.64,0,0,1-6.25-6.58,19.25,19.25,0,0,1,0-18.25,17.77,17.77,0,0,1,6.25-6.6,16.33,16.33,0,0,1,17.11,0,17,17,0,0,1,3.67,3l-5.6,5.79a9.54,9.54,0,0,0-2-1.88,8.05,8.05,0,0,0-9.19,0,10.49,10.49,0,0,0-3.35,3.81,10.91,10.91,0,0,0-1.22,5,10.66,10.66,0,0,0,1.25,5,10.51,10.51,0,0,0,3.35,3.82,8,8,0,0,0,9.14,0A9.72,9.72,0,0,0,115.15,42.65Zm38.42-16A17.72,17.72,0,0,1,156,35.82a17.48,17.48,0,0,1-2.47,9.11,17.83,17.83,0,0,1-6.67,6.6,18.44,18.44,0,0,1-25-6.6,17.57,17.57,0,0,1-2.47-9.11,17.82,17.82,0,0,1,2.47-9.15,18.26,18.26,0,0,1,6.7-6.59,18.39,18.39,0,0,1,25,6.59Zm-6,9.15a10.1,10.1,0,0,0-1.32-5A10.53,10.53,0,0,0,142.65,27a9.1,9.1,0,0,0-4.92-1.45A9,9,0,0,0,132.82,27a10.57,10.57,0,0,0-4.91,8.8,10,10,0,0,0,1.34,5,10.64,10.64,0,0,0,3.57,3.84,9.06,9.06,0,0,0,9.8,0,10.81,10.81,0,0,0,3.6-3.84A10.2,10.2,0,0,0,147.54,35.82ZM187.61,29A16.83,16.83,0,0,1,189,35.82a16.45,16.45,0,0,1-1.41,6.79,17,17,0,0,1-3.94,5.55,18.43,18.43,0,0,1-5.87,3.66,19,19,0,0,1-7.11,1.32H158.3V18.46h12.39a19,19,0,0,1,13,5A17.12,17.12,0,0,1,187.61,29Zm-7.44,6.85a9.86,9.86,0,0,0-2.93-7,10.48,10.48,0,0,0-3.3-2.18,10.29,10.29,0,0,0-4-.81h-2.76v20h2.76a10.15,10.15,0,0,0,4-.81,10.65,10.65,0,0,0,3.3-2.22,10.36,10.36,0,0,0,2.2-3.23A9.49,9.49,0,0,0,180.17,35.82Zm11.07,17.36h22V45.87H199.74V39.18h8.85l-2-7.31h-6.87v-6h13.52V18.5h-22Zm52.63-18.71L221.77,18v35.1h8.56l0-17.62,22.07,17.72V18.51l-8.5-.05ZM256.8,53.14l8.5,0V18.51h-8.5Zm43.53,0V18.5l-8.5-.05v16L269.73,18v35.1h8.55l0-17.62Zm4.5-1.58h0a14.2,14.2,0,0,1-.32,1.66,9,9,0,0,1-2.64,4,10.46,10.46,0,0,1-4.42,2.34l-.08,0h-.1l-.31,0-1.08.17v7.43a21.1,21.1,0,0,0,3.64-.52,18.79,18.79,0,0,0,8.17-4.27,16.21,16.21,0,0,0,4.79-7.31A13.54,13.54,0,0,0,313,52h.05V18.51h-8.24ZM333.4,18l19.08,35.17h-8.77L340.31,47H326.45l-3.39,6.16h-8.78Zm3.39,22.61-3.39-6.16L330,40.58Zm30.73-8.28c-1.71-.66-3.38-1.33-5-2s-2.4-1.62-2.4-2.79a2.32,2.32,0,0,1,1.1-2,3.74,3.74,0,0,1,2.25-.76,6.13,6.13,0,0,1,2.84.63,12.59,12.59,0,0,1,2.66,2l4.18-6a14.34,14.34,0,0,0-4.62-3,14.06,14.06,0,0,0-5.28-1,12,12,0,0,0-5.45,1.27,10.43,10.43,0,0,0-4.18,3.72A10.17,10.17,0,0,0,352,28.12q0,4.27,1.86,6.42a11.57,11.57,0,0,0,4.47,3.25l1.3.54,1.27.52,2.49,1c1.61.7,2.42,1.64,2.42,2.83a2.52,2.52,0,0,1-1.3,2.3,5.2,5.2,0,0,1-2.76.81A7,7,0,0,1,356,43.05l-4.6,6.55a13.87,13.87,0,0,0,4.94,3.08,16.67,16.67,0,0,0,5.77,1,12.18,12.18,0,0,0,8.48-3q3.34-3,3.35-8.55,0-4.35-1.88-6.6A11.26,11.26,0,0,0,367.52,32.3Zm17.9-10A4.78,4.78,0,0,1,384,25.75a4.85,4.85,0,0,1-6.9,0,4.93,4.93,0,0,1,0-6.94,4.85,4.85,0,0,1,6.9,0A4.75,4.75,0,0,1,385.42,22.28Zm-1.13,0a3.75,3.75,0,0,0-6.4-2.68,3.68,3.68,0,0,0-1.1,2.68,3.64,3.64,0,0,0,1.1,2.67,3.75,3.75,0,0,0,6.4-2.67Zm-2.84.35,1.26,2.2h-1.45l-1.17-2.26h0v2.25h-1.24v-5h1.42a3.32,3.32,0,0,1,1.05.15,1.39,1.39,0,0,1,.71.51,1.55,1.55,0,0,1,.25.9,1.52,1.52,0,0,1-.22.77A1.17,1.17,0,0,1,381.45,22.63ZM381,21.54a.56.56,0,0,0-.24-.54,1.5,1.5,0,0,0-.72-.14v1.41a1.56,1.56,0,0,0,.52-.07.55.55,0,0,0,.32-.24A.7.7,0,0,0,381,21.54ZM39.51,34.88l-10.85-1.3a.61.61,0,0,0-.54,1c4.22,5,9.37,2.73,11.62,1.3A.53.53,0,0,0,39.51,34.88Zm18.62,1c2.26,1.43,7.41,3.75,11.63-1.3a.61.61,0,0,0-.55-1l-10.84,1.3A.54.54,0,0,0,58.13,35.87Zm24.72-.23c0,19.69-15.19,35.64-33.92,35.64-17,0-31-13.09-33.54-30.19-1.48,5.42-6.54,7.69-9.07,8.5a1.28,1.28,0,0,1-1.67-1.05c-.8-7.46,2.6-11.18,5.77-13C5.27,35.45,1.74,31.85.25,30a1.15,1.15,0,0,1,.4-1.75c7.19-3.53,12.07-1.39,14.9,1C18.42,12.61,32.27,0,48.93,0,67.66,0,82.85,16,82.85,35.64ZM66.9,61.05S39.25,72,22,49.68c0,0,6.8,15.77,23.75,17.64A29.09,29.09,0,0,0,66.9,61.05ZM78,28.64A218.34,218.34,0,0,1,49,30.33h0a248.12,248.12,0,0,1-29.07-1.74,27.74,27.74,0,0,0-.77,7.05h0a39.1,39.1,0,0,0,.78,7,282,282,0,0,1,29.06-1.35h0c8.63,0,18.59.35,29,1.4h.09a28.24,28.24,0,0,0,.76-7h0A39.1,39.1,0,0,0,78,28.64ZM75.55,22S68.75,6.27,51.8,4.4a29.09,29.09,0,0,0-21.19,6.27S58.26-.26,75.55,22Z"/></g></g></svg>