<?xml version="1.0" standalone="no"?>
<!DOCTYPE svg PUBLIC "-//W3C//DTD SVG 1.1//EN" "http://www.w3.org/Graphics/SVG/1.1/DTD/svg11.dtd">
<svg xmlns="http://www.w3.org/2000/svg" viewBox="0 0 294.07 129.97" width="294.07000732421875" height="129.97000122070312"><defs><style>.cls-1{fill:#fff;}.cls-2{fill:none;}</style></defs><g id="Layer_2" data-name="Layer 2"><g id="Layer_1-2" data-name="Layer 1"><path class="cls-1" d="M21.68,107.35a7.93,7.93,0,0,1-9.14,0,10.4,10.4,0,0,1-3.35-3.81,10.64,10.64,0,0,1,0-10,10.37,10.37,0,0,1,3.34-3.81,8,8,0,0,1,9.19,0,9.31,9.31,0,0,1,2,1.88l5.6-5.79a17.32,17.32,0,0,0-3.67-3,16,16,0,0,0-8.55-2.42,16.09,16.09,0,0,0-8.56,2.42,17.92,17.92,0,0,0-6.25,6.6,19.27,19.27,0,0,0,0,18.26,17.71,17.71,0,0,0,6.25,6.58,16.09,16.09,0,0,0,8.56,2.42,16,16,0,0,0,8.55-2.42,17.94,17.94,0,0,0,3.72-3.08l-5.6-5.8A9.26,9.26,0,0,1,21.68,107.35Z"/><path class="cls-1" d="M55.53,82.8a18.56,18.56,0,0,0-18.33,0,18.36,18.36,0,0,0-6.7,6.6A17.78,17.78,0,0,0,28,98.54a17.58,17.58,0,0,0,2.47,9.12,18.49,18.49,0,0,0,25,6.6,17.9,17.9,0,0,0,6.67-6.6,17.49,17.49,0,0,0,2.47-9.12A17.69,17.69,0,0,0,62.2,89.4,18.12,18.12,0,0,0,55.53,82.8Zm-.68,20.73a10.81,10.81,0,0,1-3.6,3.84,9.06,9.06,0,0,1-9.8,0,10.64,10.64,0,0,1-3.57-3.84,10,10,0,0,1,0-10,10.3,10.3,0,0,1,3.59-3.82,8.94,8.94,0,0,1,4.91-1.44,9.09,9.09,0,0,1,4.92,1.44,10.56,10.56,0,0,1,3.57,3.82,10.09,10.09,0,0,1,1.32,5A10.21,10.21,0,0,1,54.85,103.53Z"/><path class="cls-1" d="M92.3,86.15a18.89,18.89,0,0,0-5.84-3.64,19.2,19.2,0,0,0-7.14-1.32H66.93v34.68H79.32a19,19,0,0,0,7.11-1.32,18.28,18.28,0,0,0,5.87-3.67,17.08,17.08,0,0,0,3.94-5.54,16.5,16.5,0,0,0,1.41-6.8,16.75,16.75,0,0,0-1.41-6.84A17,17,0,0,0,92.3,86.15Zm-4.25,16.16a10.2,10.2,0,0,1-2.2,3.22,10.51,10.51,0,0,1-3.3,2.23,10.32,10.32,0,0,1-4,.8H75.78v-20h2.76a10.29,10.29,0,0,1,4,.81,10.46,10.46,0,0,1,3.3,2.17A10.2,10.2,0,0,1,88,94.73a10,10,0,0,1,.79,3.81A9.55,9.55,0,0,1,88.05,102.31Z"/><polygon class="cls-1" points="99.87 115.91 121.89 115.91 121.89 108.6 108.37 108.6 108.37 101.9 117.22 101.9 115.24 94.59 108.37 94.59 108.37 88.58 121.89 88.58 121.89 81.23 99.87 81.23 99.87 115.91"/><polygon class="cls-1" points="152.5 97.2 130.4 80.7 130.4 115.8 138.96 115.8 138.93 98.18 161 115.89 161 81.24 152.5 81.19 152.5 97.2"/><polygon class="cls-1" points="165.43 115.87 173.93 115.89 173.93 81.24 165.43 81.24 165.43 115.87"/><polygon class="cls-1" points="208.96 115.88 208.96 81.23 200.46 81.18 200.46 97.19 178.36 80.69 178.36 115.78 186.91 115.78 186.89 98.16 208.96 115.88"/><path class="cls-1" d="M213.46,114.31h0a14.67,14.67,0,0,1-.32,1.66,9,9,0,0,1-2.64,4,10.46,10.46,0,0,1-4.43,2.35l-.07,0h-.1l-.31.05c-.35.07-.7.12-1.08.17V130a21.14,21.14,0,0,0,3.64-.51,18.8,18.8,0,0,0,8.17-4.28,16.13,16.13,0,0,0,4.79-7.3,13.63,13.63,0,0,0,.56-3.21h0V81.24h-8.24Z"/><path class="cls-1" d="M222.91,115.87h8.78l3.39-6.16h13.86l3.4,6.16h8.77L242,80.7Zm15.69-12.56L242,97.15l3.4,6.16Z"/><path class="cls-1" d="M280.65,98.27a11.46,11.46,0,0,0-4.5-3.25q-2.56-1-5-2c-1.6-.68-2.4-1.61-2.4-2.78a2.35,2.35,0,0,1,1.1-2,3.8,3.8,0,0,1,2.25-.75,6.13,6.13,0,0,1,2.84.63,12.25,12.25,0,0,1,2.66,2l4.18-6a14.53,14.53,0,0,0-4.62-3,14.32,14.32,0,0,0-5.28-1,12,12,0,0,0-5.45,1.27,10.34,10.34,0,0,0-4.18,3.71,10.2,10.2,0,0,0-1.61,5.72c0,2.85.62,5,1.86,6.43a11.5,11.5,0,0,0,4.47,3.25l1.29.54,1.28.51,2.49,1.05c1.61.7,2.42,1.65,2.42,2.84a2.52,2.52,0,0,1-1.3,2.3,5.28,5.28,0,0,1-2.76.8,7,7,0,0,1-5.79-2.78l-4.6,6.55a14,14,0,0,0,4.94,3.08,16.66,16.66,0,0,0,5.77,1,12.18,12.18,0,0,0,8.48-3q3.35-3,3.35-8.56Q282.53,100.52,280.65,98.27Z"/><path class="cls-2" d="M170.28,42.69h0Z"/><path class="cls-1" d="M141.24,0c-16.66,0-30.51,12.61-33.38,29.24-2.83-2.41-7.71-4.55-14.89-1A1.15,1.15,0,0,0,92.56,30c1.5,1.88,5,5.48,10.17,5.55-3.16,1.84-6.57,5.56-5.77,13a1.28,1.28,0,0,0,1.67,1.05c2.54-.81,7.6-3.08,9.08-8.5,2.49,17.1,16.55,30.19,33.53,30.19,18.74,0,33.93-16,33.93-35.64S160,0,141.24,0Zm2.87,4.4C161.06,6.27,167.86,22,167.86,22c-17.29-22.3-44.94-11.37-44.94-11.37A29.09,29.09,0,0,1,144.11,4.4ZM138,67.32c-17-1.87-23.76-17.64-23.76-17.64,17.29,22.3,45,11.37,45,11.37A29.09,29.09,0,0,1,138,67.32Zm32.33-24.63h-.08c-10.43-1-20.39-1.4-29-1.4h0a281.92,281.92,0,0,0-29.05,1.35,40.17,40.17,0,0,1-.79-7h0a27.74,27.74,0,0,1,.77-7,248.12,248.12,0,0,0,29.07,1.74h0a218.34,218.34,0,0,0,29.08-1.69,39.1,39.1,0,0,1,.78,7h0A28.24,28.24,0,0,1,170.36,42.69Z"/><path class="cls-1" d="M131.82,34.88a.54.54,0,0,1,.24,1c-2.26,1.43-7.41,3.75-11.63-1.3a.61.61,0,0,1,.55-1l10.84,1.3Zm18.63,1c2.25,1.43,7.4,3.75,11.62-1.3a.61.61,0,0,0-.54-1l-10.85,1.3a.54.54,0,0,0-.23,1Z"/><path class="cls-1" d="M294.07,85a4.74,4.74,0,0,1-1.43,3.47,4.88,4.88,0,0,1-6.9,0,4.91,4.91,0,0,1,3.45-8.38A4.88,4.88,0,0,1,294.07,85Zm-7.53-2.68a3.68,3.68,0,0,0-1.1,2.68,3.64,3.64,0,0,0,1.1,2.67,3.58,3.58,0,0,0,2.65,1.11A3.77,3.77,0,0,0,293,85a3.68,3.68,0,0,0-1.1-2.68,3.63,3.63,0,0,0-2.66-1.11A3.58,3.58,0,0,0,286.54,82.33Zm.95,5.22v-5h1.41a3.38,3.38,0,0,1,1.06.16,1.35,1.35,0,0,1,.7.5,1.52,1.52,0,0,1,.25.9,1.38,1.38,0,0,1-.22.77,1.15,1.15,0,0,1-.59.52l1.26,2.2h-1.45l-1.17-2.26h0v2.25ZM288.73,85a1.58,1.58,0,0,0,.52-.08.62.62,0,0,0,.32-.23.78.78,0,0,0,.11-.43.57.57,0,0,0-.23-.53,1.44,1.44,0,0,0-.72-.14Z"/></g></g></svg>