 <svg  version="1.0" xmlns="http://www.w3.org/2000/svg"  width="1536.000000pt" height="248.000000pt" viewBox="0 0 768.000000 124.000000"  preserveAspectRatio="xMidYMid meet">  <g transform="translate(0.000000,124.000000) scale(0.050000,-0.050000)" fill="#ffffff" stroke="none"> <path d="M3240 1862 c0 -388 6 -502 25 -502 33 0 30 985 -4 996 -14 5 -21 -146 -21 -494z"/> <path d="M3520 2130 l0 -230 122 0 c171 0 238 65 238 230 0 165 -67 230 -238 230 l-122 0 0 -230z m260 130 c106 -106 29 -300 -120 -300 l-80 0 0 170 0 170 80 0 c53 0 93 -13 120 -40z"/> <path d="M4780 2319 c0 -29 11 -40 35 -35 52 10 58 76 6 76 -28 0 -41 -13 -41 -41z"/> <path d="M5784 2325 c4 -19 20 -35 36 -35 16 0 32 16 36 35 5 25 -6 35 -36 35 -30 0 -41 -10 -36 -35z"/> <path d="M6886 2336 c-66 -32 -113 -146 -99 -244 31 -235 413 -274 413 -41 l0 89 -100 0 c-76 0 -100 -7 -100 -30 0 -21 21 -30 70 -30 81 0 100 -62 31 -99 -124 -67 -241 6 -241 149 0 113 50 170 150 170 48 0 77 -12 95 -40 43 -69 103 -53 66 18 -43 84 -176 111 -285 58z"/> <path d="M7278 2352 c-25 -25 6 -452 33 -452 24 0 29 43 29 230 0 217 -14 269 -62 222z"/> <path d="M7760 2133 l0 -228 99 -2 c84 -2 105 6 140 50 96 123 25 303 -111 281 -66 -11 -68 -10 -68 57 0 48 -9 69 -30 69 -25 0 -30 -39 -30 -227z m196 23 c37 -37 29 -145 -14 -184 -82 -74 -158 50 -110 176 14 38 90 42 124 8z"/> <path d="M8440 2130 c0 -217 2 -230 40 -230 38 0 40 13 40 230 0 217 -2 230 -40 230 -38 0 -40 -13 -40 -230z"/> <path d="M4633 2327 c-7 -8 -13 -30 -13 -50 0 -20 -9 -37 -20 -37 -11 0 -20 -13 -20 -30 0 -16 9 -30 20 -30 11 0 20 -49 20 -108 0 -60 5 -123 12 -140 16 -41 108 -43 108 -2 0 17 -13 30 -30 30 -23 0 -30 26 -30 110 0 84 7 110 30 110 17 0 30 14 30 30 0 17 -13 30 -30 30 -19 0 -30 19 -30 50 0 49 -19 64 -47 37z"/> <path d="M5628 2305 c-6 -19 -19 -50 -29 -69 -11 -21 -11 -39 1 -46 11 -7 20 -64 20 -127 0 -63 11 -126 24 -139 34 -34 96 -30 96 6 0 17 -13 30 -30 30 -23 0 -30 26 -30 110 0 84 7 110 30 110 17 0 30 14 30 30 0 17 -14 30 -32 30 -24 0 -29 12 -20 50 15 59 -42 73 -60 15z"/> <path d="M1250 2276 c-335 -117 -379 -658 -66 -818 91 -47 306 -51 407 -9 l69 29 0 212 0 212 -165 -6 c-150 -5 -165 -10 -165 -46 0 -35 15 -41 115 -46 l115 -6 0 -118 c0 -229 -313 -225 -432 4 -155 298 145 620 437 470 91 -46 95 -47 106 -10 36 112 -236 196 -421 132z"/> <path d="M2606 2261 c-189 -116 -141 -319 105 -443 135 -68 169 -104 169 -177 0 -115 -179 -159 -326 -81 -68 37 -76 38 -88 8 -46 -120 260 -206 412 -116 195 115 153 342 -86 461 -137 69 -172 103 -172 167 0 106 128 154 240 90 73 -42 100 -36 100 21 0 100 -230 145 -354 70z"/> <path d="M205 1855 l5 -425 130 -6 c344 -16 507 124 509 436 1 299 -133 420 -466 420 l-184 0 6 -425z m436 253 c219 -219 69 -583 -241 -587 l-90 -1 3 335 c2 184 4 335 5 335 73 20 272 -31 323 -82z"/> <path d="M1885 1855 l5 -425 235 -6 235 -5 0 50 c0 51 -1 51 -180 51 l-180 0 0 150 0 150 148 0 c147 0 178 15 157 75 -6 17 -56 25 -157 25 l-148 0 0 129 0 129 175 6 c164 6 175 9 181 51 7 45 4 45 -235 45 l-242 0 6 -425z"/> <path d="M3981 2187 c-89 -113 -22 -287 110 -287 81 0 167 70 131 106 -16 16 -33 10 -63 -22 -48 -52 -57 -53 -115 -13 -82 58 -56 89 76 89 104 0 120 5 120 37 0 70 -77 143 -150 143 -49 0 -78 -14 -109 -53z m175 -31 c42 -42 26 -56 -66 -56 -49 0 -90 7 -90 16 0 30 48 64 90 64 23 0 53 -11 66 -24z"/> <path d="M4324 2216 c-64 -64 -22 -135 101 -175 84 -27 94 -49 35 -81 -44 -23 -109 0 -126 45 -7 20 -14 20 -35 0 -43 -40 31 -105 121 -105 166 0 180 139 21 198 -49 17 -89 41 -89 52 -3 28 88 38 114 12 27 -27 74 -29 74 -3 0 67 -163 110 -216 57z"/> <path d="M4780 2070 c0 -138 6 -170 30 -170 24 0 30 32 30 170 0 138 -6 170 -30 170 -24 0 -30 -32 -30 -170z"/> <path d="M4920 2070 c0 -138 6 -170 30 -170 23 0 30 26 30 116 0 125 22 164 94 164 44 0 46 -7 46 -140 0 -127 4 -140 40 -140 52 0 59 224 9 296 -34 49 -125 60 -165 20 -19 -19 -24 -19 -24 0 0 13 -13 24 -30 24 -24 0 -30 -32 -30 -170z"/> <path d="M5289 2199 c-31 -35 -33 -44 -9 -59 18 -11 35 -7 50 13 28 39 140 29 140 -12 0 -18 -31 -36 -78 -46 -125 -25 -174 -105 -108 -171 30 -30 141 -31 170 -2 15 15 25 15 35 0 33 -53 51 -12 51 117 0 194 -139 283 -251 160z m191 -166 c0 -40 -72 -97 -113 -90 -56 11 -58 74 -3 96 68 27 116 25 116 -6z"/> <path d="M5794 2227 c-34 -34 -15 -330 20 -323 29 5 34 30 33 165 -1 146 -18 194 -53 158z"/> <path d="M5959 2203 c-60 -49 -67 -199 -11 -261 52 -57 172 -57 224 0 136 151 -57 388 -213 261z m182 -74 c40 -107 -35 -215 -119 -170 -93 50 -64 221 38 221 47 0 65 -12 81 -51z"/> <path d="M6277 2096 c-2 -75 -4 -147 -5 -161 -1 -13 13 -27 32 -31 29 -6 35 14 40 130 l6 136 60 0 60 0 6 -135 c9 -197 64 -194 64 4 0 174 -24 203 -161 197 l-99 -5 -3 -135z"/> <path d="M7440 2200 c-28 -28 -40 -67 -40 -130 0 -163 164 -237 259 -117 126 161 -76 390 -219 247z m179 -59 c62 -116 -42 -255 -128 -170 -37 38 -41 151 -7 185 37 37 112 29 135 -15z"/> <path d="M8130 2200 c-25 -28 -31 -47 -17 -61 14 -14 29 -11 46 10 34 40 133 40 149 0 12 -33 0 -40 -113 -58 -150 -25 -150 -191 1 -191 42 0 87 11 100 24 19 19 24 19 24 0 0 -13 14 -24 30 -24 43 0 42 234 -1 296 -42 59 -167 61 -219 4z m190 -160 c0 -30 -76 -100 -108 -100 -45 0 -77 51 -47 75 55 43 155 59 155 25z"/> <path d="M3520 1590 l0 -230 170 0 c138 0 170 6 170 30 0 24 -29 30 -140 30 l-140 0 0 70 0 70 120 0 c93 0 120 7 120 30 0 23 -27 30 -120 30 l-120 0 0 73 0 72 130 -10 c118 -9 130 -7 130 27 0 34 -17 38 -160 38 l-160 0 0 -230z"/> <path d="M4134 1807 c-8 -7 -14 -39 -14 -70 0 -51 -5 -55 -59 -44 -118 23 -199 -128 -139 -260 29 -62 108 -100 156 -74 20 10 53 14 74 9 36 -9 38 3 37 215 -2 206 -16 264 -55 224z m-39 -183 c83 -53 15 -263 -69 -212 -54 33 -78 117 -50 177 23 51 71 65 119 35z"/> <path d="M5440 1780 c0 -30 10 -41 35 -36 19 4 35 20 35 36 0 16 -16 32 -35 36 -25 5 -35 -6 -35 -36z"/> <path d="M6620 1590 c0 -191 5 -230 30 -230 25 0 30 39 30 230 0 191 -5 230 -30 230 -25 0 -30 -39 -30 -230z"/> <path d="M6985 1790 c-99 -71 -44 -188 108 -228 158 -43 161 -142 4 -142 -64 0 -82 9 -101 50 -25 55 -76 68 -76 19 0 -157 313 -192 352 -40 19 79 -31 136 -154 172 -73 21 -110 42 -115 67 -14 76 138 102 182 32 28 -45 75 -54 75 -14 0 93 -185 149 -275 84z"/> <path d="M8200 1781 c0 -28 13 -41 41 -41 52 0 46 66 -6 76 -24 5 -35 -6 -35 -35z"/> <path d="M5305 1785 c-14 -5 -25 -29 -25 -55 0 -26 -11 -51 -25 -57 -19 -8 -19 -14 -1 -27 13 -9 27 -75 30 -147 6 -124 8 -129 61 -135 58 -7 76 29 25 49 -22 8 -30 42 -30 119 0 83 7 108 30 108 17 0 30 9 30 20 0 11 -13 20 -29 20 -16 0 -31 24 -35 57 -4 35 -16 53 -31 48z"/> <path d="M4268 1671 c-19 -48 1 -268 26 -293 12 -12 48 -21 79 -20 31 1 82 2 113 3 l56 0 -6 165 c-5 127 -13 164 -35 164 -22 0 -28 -25 -24 -112 4 -83 -3 -121 -27 -145 -78 -78 -137 -7 -127 152 7 101 -28 156 -55 86z"/> <path d="M4649 1651 c-94 -94 -51 -272 72 -301 57 -14 159 52 159 101 0 42 -38 35 -78 -14 -73 -89 -172 19 -129 141 21 60 89 78 126 33 29 -35 81 -42 81 -11 0 92 -156 126 -231 51z"/> <path d="M4964 1669 c-24 -17 -44 -44 -44 -60 0 -38 53 -37 67 1 15 39 125 40 140 1 14 -36 3 -44 -91 -61 -40 -8 -88 -30 -106 -51 -70 -76 32 -180 138 -140 26 10 68 13 92 7 43 -11 44 -8 35 134 -12 192 -103 258 -231 169z m165 -194 c-26 -83 -139 -104 -139 -25 0 36 34 53 136 68 9 1 10 -18 3 -43z"/> <path d="M5609 1651 c-114 -114 -8 -344 138 -299 84 25 113 69 113 170 0 159 -146 234 -251 129z m167 -35 c46 -46 30 -174 -26 -200 -64 -29 -130 24 -130 106 0 95 97 153 156 94z"/> <path d="M5933 1686 c-37 -36 -13 -326 27 -326 35 0 38 10 28 85 -14 104 18 195 68 195 62 0 84 -43 84 -164 0 -90 7 -116 30 -116 50 0 42 248 -10 300 -43 43 -92 50 -139 21 -18 -12 -38 -12 -52 0 -13 10 -29 13 -36 5z"/> <path d="M6340 1687 c-33 -13 -80 -66 -80 -91 0 -27 54 -18 81 15 32 39 127 30 135 -13 4 -24 -16 -36 -79 -46 -103 -17 -137 -42 -137 -104 0 -65 79 -115 143 -91 27 11 71 15 98 10 l49 -10 -10 150 c-5 82 -16 155 -23 162 -18 19 -143 31 -177 18z m140 -207 c0 -47 -81 -92 -130 -73 -78 30 -16 90 115 111 8 1 15 -16 15 -38z"/> <path d="M7406 1680 c-111 -45 -99 -259 17 -315 76 -36 195 13 197 80 0 27 -54 16 -81 -16 -34 -41 -98 -29 -134 26 l-30 45 123 0 c122 0 122 0 122 59 0 101 -109 163 -214 121z m130 -64 c41 -41 27 -56 -56 -56 -56 0 -80 9 -80 28 0 50 95 69 136 28z"/> <path d="M7699 1697 c-21 -173 -10 -337 24 -337 32 0 37 16 37 130 0 126 9 143 68 131 10 -2 25 7 32 19 8 12 39 -46 69 -129 74 -202 104 -200 178 10 31 89 52 167 45 173 -23 23 -68 -37 -92 -125 -36 -126 -51 -126 -95 5 -38 114 -153 175 -196 104 -8 -13 -23 -11 -41 3 -15 13 -28 21 -29 16z"/> <path d="M8225 1685 c-44 -15 -34 -325 11 -325 31 0 35 17 29 145 -9 185 -10 191 -40 180z"/> <path d="M8420 1686 c-88 -31 -114 -229 -40 -296 58 -52 158 -47 204 10 53 65 12 105 -45 44 -73 -79 -139 -43 -139 76 0 105 101 173 133 90 14 -38 67 -39 67 -1 0 60 -104 104 -180 77z"/> <path d="M8689 1651 c-117 -118 -3 -350 147 -297 44 15 104 67 104 89 0 28 -61 19 -93 -13 -38 -39 -76 -38 -116 1 -54 54 -35 69 89 69 115 0 120 2 120 51 0 66 -84 149 -150 149 -28 0 -74 -22 -101 -49z m171 -51 c20 -37 15 -40 -70 -40 -85 0 -90 3 -70 40 12 23 42 40 70 40 28 0 58 -17 70 -40z"/> <path d="M5440 1520 c0 -129 6 -160 30 -160 24 0 30 31 30 160 0 129 -6 160 -30 160 -24 0 -30 -31 -30 -160z"/> </g> </svg> 


 